<svg width="56" height="63" viewBox="0 0 56 63" fill="none" xmlns="http://www.w3.org/2000/svg">
<g clip-path="url(#clip0_221_82)">
<path d="M8.20312 62.5004H26.4688V40.6035H19.9062V33.3848H26.4688V24.3613C26.4688 19.3857 30.1486 15.3379 34.6719 15.3379H42.875V22.5566H36.3125C34.5031 22.5566 33.0312 24.1757 33.0312 26.166V33.3848H42.5789L41.4852 40.6035H33.0312V62.5004H47.7969C52.3201 62.5004 56 58.4525 56 53.477V9.92383C56 4.94825 52.3201 0.900391 47.7969 0.900391H8.20312C3.67987 0.900391 0 4.94825 0 9.92383V53.477C0 58.4525 3.67987 62.5004 8.20312 62.5004ZM3.28125 9.92383C3.28125 6.93857 5.48926 4.50977 8.20312 4.50977H47.7969C50.5107 4.50977 52.7188 6.93857 52.7188 9.92383V53.477C52.7188 56.4622 50.5107 58.891 47.7969 58.891H36.3125V44.2129H44.2648L46.4523 29.7754H36.3125V26.166H46.1562V11.7285H34.6719C28.3392 11.7285 23.1875 17.3954 23.1875 24.3613V29.7754H16.625V44.2129H23.1875V58.891H8.20312C5.48926 58.891 3.28125 56.4622 3.28125 53.477V9.92383Z" fill="#ED184B"/>
</g>
<defs>
<clipPath id="clip0_221_82">
<rect width="56" height="61.6" fill="white" transform="translate(0 0.900391)"/>
</clipPath>
</defs>
</svg>
