<svg width="56" height="56" viewBox="0 0 56 56" fill="none" xmlns="http://www.w3.org/2000/svg">
<g clip-path="url(#clip0_3_57)">
<path d="M8.20312 56H26.4688V36.0938H19.9062V29.5312H26.4688V21.3281C26.4688 16.8049 30.1486 13.125 34.6719 13.125H42.875V19.6875H36.3125C34.5031 19.6875 33.0312 21.1594 33.0312 22.9688V29.5312H42.5789L41.4852 36.0938H33.0312V56H47.7969C52.3201 56 56 52.3201 56 47.7969V8.20312C56 3.67987 52.3201 0 47.7969 0H8.20312C3.67987 0 0 3.67987 0 8.20312V47.7969C0 52.3201 3.67987 56 8.20312 56ZM3.28125 8.20312C3.28125 5.48926 5.48926 3.28125 8.20312 3.28125H47.7969C50.5107 3.28125 52.7188 5.48926 52.7188 8.20312V47.7969C52.7188 50.5107 50.5107 52.7188 47.7969 52.7188H36.3125V39.375H44.2648L46.4523 26.25H36.3125V22.9688H46.1562V9.84375H34.6719C28.3392 9.84375 23.1875 14.9955 23.1875 21.3281V26.25H16.625V39.375H23.1875V52.7188H8.20312C5.48926 52.7188 3.28125 50.5107 3.28125 47.7969V8.20312Z" fill="black"/>
</g>
<defs>
<clipPath id="clip0_3_57">
<rect width="56" height="56" fill="white"/>
</clipPath>
</defs>
</svg>
