<svg width="56" height="63" viewBox="0 0 56 63" fill="none" xmlns="http://www.w3.org/2000/svg">
<g clip-path="url(#clip0_221_78)">
<path d="M40.25 60.5752H15.75C8.05 60.5752 1.75 53.6452 1.75 45.1752V18.2252C1.75 9.75519 8.05 2.8252 15.75 2.8252H40.25C47.95 2.8252 54.25 9.75519 54.25 18.2252V45.1752C54.25 53.6452 47.95 60.5752 40.25 60.5752Z" stroke="#ED184B" stroke-width="4" stroke-miterlimit="10" stroke-linecap="round" stroke-linejoin="round"/>
<path d="M28.25 45.45C35.0155 45.45 40.5 39.417 40.5 31.975C40.5 24.533 35.0155 18.5 28.25 18.5C21.4845 18.5 16 24.533 16 31.975C16 39.417 21.4845 45.45 28.25 45.45Z" stroke="#ED184B" stroke-width="4" stroke-miterlimit="10" stroke-linecap="round" stroke-linejoin="round"/>
<path d="M42 16.3002C42.9665 16.3002 43.75 15.4383 43.75 14.3752C43.75 13.312 42.9665 12.4502 42 12.4502C41.0335 12.4502 40.25 13.312 40.25 14.3752C40.25 15.4383 41.0335 16.3002 42 16.3002Z" stroke="#ED184B" stroke-width="2" stroke-miterlimit="10" stroke-linecap="round" stroke-linejoin="round"/>
</g>
<defs>
<clipPath id="clip0_221_78">
<rect width="56" height="61.6" fill="white" transform="translate(0 0.900391)"/>
</clipPath>
</defs>
</svg>
