<svg width="58" height="65" viewBox="0 0 58 65" fill="none" xmlns="http://www.w3.org/2000/svg">
<g clip-path="url(#clip0_221_75)">
<path d="M61.6084 16.4413C62.3685 15.2394 62.9649 13.9075 63.3704 12.4863L64.4576 8.67188L61.3473 10.7401C59.4189 12.0237 57.3422 12.9595 55.1665 13.5265C52.2046 10.3969 48.0937 9.01053 43.9952 9.79217C38.4989 10.8505 34.1653 15.9107 33.4561 22.0972C33.3297 23.1979 33.3091 24.2879 33.3929 25.3598C25.1615 24.3892 17.5349 19.7765 12.2612 12.5165L10.9981 10.7779L9.99479 12.7101C8.85127 14.9098 8.2479 17.4256 8.2479 19.9836C8.2479 22.8607 9.00383 25.6183 10.3714 27.9481C10.315 27.9164 10.2614 27.8816 10.2064 27.8483L8.1833 26.5874L8.15444 29.1455C8.10358 33.7098 9.96043 37.8811 12.9608 40.6009L11.5795 40.3076L12.2695 42.7281C13.582 47.3242 16.8119 50.7939 20.7909 52.1621C16.7913 54.7111 12.0935 55.7755 7.42737 55.1571L1.5957 54.3861L6.51063 57.9238C12.0358 61.8985 18.4241 64 24.9856 64C46.4362 64 59.254 44.4577 59.254 25.5654C59.254 25.2479 59.2513 24.932 59.2444 24.6175C61.394 22.7655 63.2495 20.543 64.7654 17.997L67.3576 13.6429L63.0488 15.7912C62.5746 16.0286 62.0949 16.2448 61.6084 16.4413ZM57.0316 22.6687L56.4406 23.1464L56.4722 23.9523C56.4942 24.4875 56.5038 25.0242 56.5038 25.5639C56.5052 47.7308 40.4794 60.9763 24.9856 60.9763C20.751 60.9763 16.5948 60.0223 12.7354 58.1884C17.2998 57.6351 21.5784 55.6848 25.2371 52.4645L28.2086 49.8505L24.4042 49.7719C20.7702 49.6978 17.5074 47.4632 15.7522 44.0162C15.7522 44.0162 15.7536 44.0162 15.755 44.0162C16.9136 44.0162 18.0626 43.8454 19.169 43.5067L24.6557 41.827L19.077 40.5692C14.9922 39.6484 11.8915 36.0366 11.0998 31.5781C12.2681 32.0075 13.4899 32.2524 14.72 32.2962L19.4453 32.4656L15.5392 29.5356C12.6941 27.4023 10.9954 23.8313 10.9954 19.9836C10.9954 18.7091 11.1837 17.4482 11.5479 16.2554C17.6063 23.5864 26.0164 28.0252 34.9446 28.5287L36.7589 28.63L36.3548 26.6812C36.0744 25.3296 36.0153 23.9145 36.1816 22.4752C36.741 17.5934 40.1482 13.6036 44.468 12.772C47.9027 12.1083 51.3525 13.3934 53.7041 16.2055L54.2278 16.8314L54.9864 16.6651C56.31 16.3733 57.602 15.9606 58.8554 15.4344C58.127 16.4111 57.2501 17.2562 56.2564 17.923L50.8563 21.5545L57.1388 20.7139C57.9648 20.6035 58.7826 20.4463 59.588 20.2437C58.7963 21.1236 57.9414 21.9324 57.0316 22.6687Z" fill="#ED184B"/>
</g>
<defs>
<clipPath id="clip0_221_75">
<rect width="58" height="63.8" fill="white" transform="translate(0 0.5)"/>
</clipPath>
</defs>
</svg>
