<svg width="58" height="58" viewBox="0 0 58 58" fill="none" xmlns="http://www.w3.org/2000/svg">
<path d="M52.2464 13.39C52.8879 12.4678 53.3913 11.4458 53.7335 10.3554L54.6511 7.42871L52.026 9.01559C50.3985 10.0004 48.6458 10.7185 46.8095 11.1535C44.3097 8.75227 40.8401 7.68855 37.381 8.28827C32.7422 9.10027 29.0847 12.9828 28.4862 17.7295C28.3794 18.574 28.362 19.4104 28.4328 20.2328C21.4856 19.4881 15.0487 15.9489 10.5978 10.3786L9.53175 9.04459L8.68495 10.5271C7.71983 12.2149 7.21059 14.1451 7.21059 16.1078C7.21059 18.3153 7.84859 20.4312 9.00279 22.2187C8.95523 22.1944 8.90999 22.1677 8.86359 22.1422L7.15607 21.1747L7.13171 23.1374C7.08879 26.6395 8.65595 29.8399 11.1882 31.9268L10.0224 31.7017L10.6048 33.5589C11.7126 37.0853 14.4386 39.7475 17.7968 40.7973C14.4212 42.753 10.4563 43.5697 6.51807 43.0952L1.59619 42.5036L5.74435 45.218C10.4076 48.2677 15.7992 49.8801 21.3371 49.8801C39.4412 49.8801 50.2593 34.8859 50.2593 20.3906C50.2593 20.147 50.257 19.9045 50.2512 19.6632C52.0655 18.2422 53.6315 16.537 54.911 14.5836L57.0987 11.2428L53.4621 12.8912C53.0619 13.0733 52.6571 13.2392 52.2464 13.39ZM48.3836 18.168L47.8848 18.5346L47.9115 19.1528C47.9301 19.5635 47.9382 19.9753 47.9382 20.3894C47.9394 37.3973 34.4137 47.5601 21.3371 47.5601C17.7631 47.5601 14.2553 46.8281 10.998 45.421C14.8504 44.9965 18.4614 43.5001 21.5494 41.0293L24.0573 39.0236L20.8464 38.9633C17.7794 38.9065 15.0255 37.192 13.5442 34.5472C13.5442 34.5472 13.5454 34.5472 13.5465 34.5472C14.5244 34.5472 15.4942 34.4161 16.4279 34.1563L21.0587 32.8675L16.3502 31.9024C12.9027 31.196 10.2858 28.4247 9.61759 25.0039C10.6036 25.3333 11.6348 25.5212 12.673 25.5549L16.6611 25.6848L13.3644 23.4367C10.9632 21.8 9.52943 19.06 9.52943 16.1078C9.52943 15.13 9.68835 14.1625 9.99575 13.2473C15.109 18.8721 22.2071 22.2779 29.7424 22.6642L31.2736 22.7419L30.9326 21.2466C30.696 20.2096 30.6461 19.1238 30.7864 18.0195C31.2586 14.2739 34.1342 11.2126 37.7801 10.5746C40.6789 10.0654 43.5905 11.0514 45.5753 13.209L46.0172 13.6892L46.6576 13.5616C47.7746 13.3378 48.865 13.0211 49.923 12.6174C49.3081 13.3668 48.5681 14.0152 47.7294 14.5268L43.1717 17.3131L48.4741 16.6681C49.1713 16.5834 49.8615 16.4628 50.5412 16.3074C49.8731 16.9825 49.1516 17.6031 48.3836 18.168Z" fill="black"/>
</svg>
