<svg width="90" height="90" viewBox="0 0 90 90" fill="none" xmlns="http://www.w3.org/2000/svg">
<circle cx="45" cy="45" r="45" fill="#C5C5C5"/>
<path d="M73.6701 59.4798C73.4535 58.9292 73.1293 58.4273 72.7165 58.0035C72.3037 57.5797 71.8105 57.2425 71.2657 57.0116C70.721 56.7806 70.1357 56.6607 69.5441 56.6586C68.9524 56.6566 68.3663 56.7726 67.8201 56.9998L55.0901 61.5098C55.1336 61.2554 55.157 60.9979 55.1601 60.7398C55.1601 59.6047 54.7091 58.516 53.9065 57.7134C53.1038 56.9107 52.0152 56.4598 50.8801 56.4598H47.5801C44.6453 56.4572 41.7554 55.7399 39.1601 54.3698C36.279 52.8462 33.0692 52.0497 29.8101 52.0498H23.8101C23.5448 52.0498 23.2905 52.1551 23.103 52.3427C22.9154 52.5302 22.8101 52.7846 22.8101 53.0498V69.7098C22.8101 69.975 22.9154 70.2294 23.103 70.4169C23.2905 70.6044 23.5448 70.7098 23.8101 70.7098C25.9456 70.7089 28.0657 71.0707 30.0801 71.7798L35.2201 73.5998C37.8546 74.5265 40.6272 74.9999 43.4201 74.9998H44.4201C47.4139 74.8643 50.3582 74.1867 53.1101 72.9998L71.5401 65.1298C72.5372 64.6248 73.309 63.7646 73.7032 62.7188C74.0975 61.6729 74.0857 60.5173 73.6701 59.4798Z" fill="#FDD0AF"/>
<path d="M71.19 22.8998C70.312 22.0067 69.2644 21.298 68.1087 20.8155C66.953 20.3329 65.7125 20.0862 64.46 20.0898C63.2004 20.0873 61.9527 20.3344 60.789 20.8167C59.6253 21.299 58.5687 22.007 57.68 22.8998L54.82 25.7598L52 22.8998C51.1164 21.9981 50.0626 21.2805 48.8999 20.7887C47.7371 20.2968 46.4883 20.0404 45.2258 20.0343C43.9633 20.0282 42.7121 20.2724 41.5446 20.7529C40.3771 21.2335 39.3164 21.9407 38.424 22.8338C37.5316 23.7269 36.8251 24.7881 36.3455 25.9559C35.8658 27.1238 35.6225 28.3752 35.6295 29.6377C35.6366 30.9002 35.8939 32.1488 36.3867 33.3112C36.8794 34.4736 37.5977 35.5268 38.5 36.4098L54.11 52.0698C54.2027 52.1643 54.3131 52.2395 54.435 52.291C54.5568 52.3424 54.6877 52.3693 54.82 52.3698C54.9523 52.3693 55.0832 52.3424 55.2051 52.291C55.327 52.2395 55.4374 52.1643 55.53 52.0698L71.19 36.4098C72.0811 35.525 72.7882 34.4726 73.2708 33.3132C73.7534 32.1539 74.0018 30.9106 74.0018 29.6548C74.0018 28.3991 73.7534 27.1557 73.2708 25.9964C72.7882 24.8371 72.0811 23.7846 71.19 22.8998Z" fill="#ED184B"/>
<path d="M49 40.3602H48.92C48.7602 40.347 48.606 40.2956 48.4702 40.2104C48.3345 40.1251 48.2212 40.0084 48.14 39.8702L43.77 32.5102L37.27 37.8302C37.0927 37.9771 36.8702 38.0583 36.64 38.0602H32.12C31.8548 38.0602 31.6004 37.9549 31.4129 37.7673C31.2254 37.5798 31.12 37.3254 31.12 37.0602C31.12 36.795 31.2254 36.5406 31.4129 36.3531C31.6004 36.1656 31.8548 36.0602 32.12 36.0602H36.28L43.4 30.2202C43.5118 30.1299 43.6417 30.0647 43.7809 30.0291C43.9202 29.9936 44.0654 29.9884 44.2068 30.014C44.3482 30.0397 44.4824 30.0954 44.6003 30.1776C44.7182 30.2598 44.817 30.3664 44.89 30.4902L49.14 37.6302L54.05 31.6902C54.144 31.5773 54.2618 31.4865 54.3948 31.4243C54.5279 31.3621 54.6731 31.33 54.82 31.3302H63.06C63.3252 31.3302 63.5796 31.4356 63.7671 31.6231C63.9546 31.8106 64.06 32.065 64.06 32.3302C64.06 32.5954 63.9546 32.8498 63.7671 33.0373C63.5796 33.2249 63.3252 33.3302 63.06 33.3302H55.29L49.77 40.0002C49.676 40.1131 49.5582 40.2039 49.4251 40.2661C49.2921 40.3283 49.1469 40.3604 49 40.3602Z" fill="white"/>
<path d="M21.59 47.5H19.22C17.4416 47.5 16 48.9416 16 50.72V70.78C16 72.5584 17.4416 74 19.22 74H21.59C23.3684 74 24.81 72.5584 24.81 70.78V50.72C24.81 48.9416 23.3684 47.5 21.59 47.5Z" fill="#4D4D4D"/>
<path d="M73.67 59.48C73.4534 58.9294 73.1293 58.4275 72.7164 58.0037C72.3036 57.5799 71.8104 57.2427 71.2657 57.0118C70.721 56.7809 70.1357 56.6609 69.544 56.6589C68.9524 56.6568 68.3663 56.7728 67.82 57L55.09 61.51C55.1336 61.2556 55.157 60.9981 55.16 60.74C55.16 59.6049 54.7091 58.5162 53.9064 57.7136C53.1038 56.9109 52.0151 56.46 50.88 56.46H47.58C44.6453 56.4574 41.7553 55.7401 39.16 54.37C36.2789 52.8464 33.0691 52.05 29.81 52.05H24.81V50.73C24.81 49.8734 24.4697 49.0518 23.864 48.446C23.2582 47.8403 22.4366 47.5 21.58 47.5H19.22C18.3651 47.5026 17.5461 47.8441 16.9425 48.4496C16.3389 49.055 16 49.8751 16 50.73V70.78C16.0026 71.6332 16.3427 72.4507 16.946 73.054C17.5493 73.6573 18.3668 73.9974 19.22 74H21.58C22.0042 74 22.4242 73.9165 22.8161 73.7541C23.2079 73.5918 23.564 73.3539 23.864 73.054C24.1639 72.754 24.4018 72.398 24.5641 72.0061C24.7265 71.6142 24.81 71.1942 24.81 70.77C26.6051 70.8524 28.3795 71.1891 30.08 71.77L35.22 73.59C37.8546 74.5167 40.6272 74.9901 43.42 74.99H44.42C47.4138 74.8545 50.3582 74.1769 53.11 72.99L71.54 65.12C72.5348 64.6152 73.3048 63.7567 73.6989 62.7131C74.0931 61.6696 74.0827 60.5163 73.67 59.48ZM22.81 70.78C22.8074 71.1045 22.6766 71.4148 22.4462 71.6433C22.2158 71.8718 21.9045 72 21.58 72H19.22C18.8972 71.9974 18.5884 71.868 18.3602 71.6398C18.132 71.4116 18.0026 71.1028 18 70.78V50.73C18 50.4055 18.1282 50.0942 18.3567 49.8638C18.5852 49.6334 18.8955 49.5026 19.22 49.5H21.58C21.9062 49.5 22.2191 49.6296 22.4497 49.8603C22.6804 50.0909 22.81 50.4038 22.81 50.73V70.78ZM70.73 63.33L52.36 71.17C49.8278 72.2615 47.1155 72.8751 44.36 72.98C41.4717 73.1003 38.587 72.6693 35.86 71.71L30.74 69.9C28.8299 69.2299 26.8321 68.8425 24.81 68.75V54.05H29.81C32.7423 54.0465 35.6305 54.7643 38.22 56.14C41.1057 57.661 44.318 58.4572 47.58 58.46H50.88C51.1803 58.46 51.4776 58.5193 51.7548 58.6345C52.0321 58.7497 52.2839 58.9186 52.4958 59.1313C52.7076 59.3441 52.8753 59.5966 52.9893 59.8744C53.1033 60.1522 53.1613 60.4497 53.16 60.75C53.1617 61.0755 53.0919 61.3974 52.9554 61.6929C52.8188 61.9885 52.619 62.2503 52.37 62.46L50.69 63.05H39.78C39.5148 63.05 39.2604 63.1554 39.0729 63.3429C38.8854 63.5304 38.78 63.7848 38.78 64.05C38.78 64.3152 38.8854 64.5696 39.0729 64.7571C39.2604 64.9446 39.5148 65.05 39.78 65.05H50.88C51.02 65.05 68.55 58.89 68.55 58.89C68.852 58.7579 69.1775 58.6878 69.5071 58.6839C69.8367 58.6801 70.1638 58.7425 70.4688 58.8675C70.7738 58.9925 71.0506 59.1775 71.2827 59.4115C71.5148 59.6456 71.6976 59.9239 71.82 60.23C72.0501 60.7905 72.0663 61.416 71.8653 61.9876C71.6643 62.5591 71.2603 63.0369 70.73 63.33Z" fill="black"/>
<path d="M32.12 38.0601H36.64C36.8702 38.0582 37.0927 37.977 37.27 37.8301L38.7 36.6601L54.11 52.0701C54.2026 52.1646 54.3131 52.2398 54.4349 52.2913C54.5568 52.3428 54.6877 52.3696 54.82 52.3701C54.9523 52.3696 55.0832 52.3428 55.2051 52.2913C55.3269 52.2398 55.4374 52.1646 55.53 52.0701L71.19 36.4101C72.081 35.5253 72.7882 34.4729 73.2708 33.3135C73.7533 32.1542 74.0018 30.9109 74.0018 29.6551C74.0018 28.3994 73.7533 27.156 73.2708 25.9967C72.7882 24.8374 72.081 23.7849 71.19 22.9001C70.312 22.007 69.2643 21.2983 68.1086 20.8158C66.9529 20.3332 65.7124 20.0865 64.46 20.0901C63.2003 20.0876 61.9526 20.3347 60.789 20.817C59.6253 21.2993 58.5686 22.0073 57.68 22.9001L54.82 25.7601L52 22.9001C50.3276 21.1312 48.0428 20.0678 45.6126 19.9271C43.1823 19.7864 40.7901 20.5791 38.9247 22.1431C37.0594 23.7072 35.8617 25.9246 35.5764 28.3421C35.2912 30.7596 35.9399 33.1949 37.39 35.1501L36.28 36.0601H32.12C31.8548 36.0601 31.6004 36.1655 31.4129 36.353C31.2254 36.5405 31.12 36.7949 31.12 37.0601C31.12 37.3253 31.2254 37.5797 31.4129 37.7672C31.6004 37.9548 31.8548 38.0601 32.12 38.0601ZM37.64 29.6301C37.6414 28.1361 38.0861 26.6761 38.9177 25.435C39.7492 24.1938 40.9304 23.2272 42.3115 22.6576C43.6927 22.088 45.2118 21.941 46.6765 22.2351C48.1413 22.5293 49.4858 23.2514 50.54 24.3101L54.11 27.8801C54.203 27.9738 54.3136 28.0482 54.4354 28.099C54.5573 28.1498 54.688 28.1759 54.82 28.1759C54.952 28.1759 55.0827 28.1498 55.2046 28.099C55.3264 28.0482 55.437 27.9738 55.53 27.8801L59.1 24.3101C59.8007 23.6047 60.6344 23.0454 61.5527 22.6643C62.471 22.2832 63.4558 22.0881 64.45 22.0901C65.4398 22.0882 66.42 22.2835 67.3334 22.6647C68.2468 23.0458 69.0752 23.6052 69.77 24.3101C70.4739 25.0099 71.0325 25.8419 71.4136 26.7584C71.7948 27.6748 71.991 28.6576 71.991 29.6501C71.991 30.6427 71.7948 31.6254 71.4136 32.5418C71.0325 33.4583 70.4739 34.2903 69.77 34.9901L54.77 49.9901L40.25 35.3901L43.77 32.5101L48.14 39.8701C48.2216 40.0081 48.3352 40.1244 48.4711 40.2093C48.6071 40.2942 48.7615 40.3452 48.9213 40.358C49.0811 40.3707 49.2416 40.3448 49.3893 40.2826C49.537 40.2203 49.6676 40.1234 49.77 40.0001L55.29 33.3301H63.06C63.3252 33.3301 63.5796 33.2248 63.7671 33.0372C63.9546 32.8497 64.06 32.5953 64.06 32.3301C64.06 32.0649 63.9546 31.8105 63.7671 31.623C63.5796 31.4355 63.3252 31.3301 63.06 31.3301H54.82C54.6731 31.3299 54.5279 31.362 54.3948 31.4242C54.2618 31.4864 54.144 31.5772 54.05 31.6901L49.14 37.6301L44.89 30.4901C44.817 30.3663 44.7182 30.2597 44.6003 30.1775C44.4824 30.0953 44.3482 30.0395 44.2068 30.0139C44.0654 29.9883 43.9202 29.9935 43.7809 30.029C43.6417 30.0646 43.5118 30.1298 43.4 30.2201L38.94 33.8801C38.0872 32.6273 37.634 31.1456 37.64 29.6301Z" fill="black"/>
</svg>
